<mxfile host="Electron" modified="2023-06-10T15:42:59.406Z" agent="Mozilla/5.0 (Windows NT 10.0; Win64; x64) AppleWebKit/537.36 (KHTML, like Gecko) draw.io/21.3.7 Chrome/112.0.5615.204 Electron/24.5.0 Safari/537.36" etag="NPb2hluAL10J77Le49JM" version="21.3.7" type="device">
  <diagram name="Page-1" id="DJmr-IHbBia1p-OYUxYP">
    <mxGraphModel dx="3457" dy="2007" grid="1" gridSize="10" guides="1" tooltips="1" connect="1" arrows="1" fold="1" page="1" pageScale="1" pageWidth="1169" pageHeight="827" math="0" shadow="0">
      <root>
        <mxCell id="0" />
        <mxCell id="1" parent="0" />
        <mxCell id="vJc8T6YC7RUJxNuGQacC-1" value="Function" style="rounded=0;whiteSpace=wrap;html=1;fontFamily=UGent Panno Text;fontSize=32;" vertex="1" parent="1">
          <mxGeometry x="160" y="40" width="240" height="40" as="geometry" />
        </mxCell>
        <mxCell id="vJc8T6YC7RUJxNuGQacC-12" style="edgeStyle=orthogonalEdgeStyle;rounded=0;orthogonalLoop=1;jettySize=auto;html=1;entryX=0;entryY=0.5;entryDx=0;entryDy=0;fontFamily=UGent Panno Text;fontSize=28;fontColor=default;" edge="1" parent="1" source="vJc8T6YC7RUJxNuGQacC-2" target="vJc8T6YC7RUJxNuGQacC-7">
          <mxGeometry relative="1" as="geometry">
            <Array as="points">
              <mxPoint x="480" y="100" />
              <mxPoint x="480" y="60" />
            </Array>
          </mxGeometry>
        </mxCell>
        <mxCell id="vJc8T6YC7RUJxNuGQacC-2" value="Name" style="shape=step;perimeter=stepPerimeter;whiteSpace=wrap;html=1;fixedSize=1;fontFamily=UGent Panno Text;fontSize=28;" vertex="1" parent="1">
          <mxGeometry x="160" y="80" width="240" height="40" as="geometry" />
        </mxCell>
        <mxCell id="vJc8T6YC7RUJxNuGQacC-18" style="edgeStyle=orthogonalEdgeStyle;rounded=0;orthogonalLoop=1;jettySize=auto;html=1;exitX=1;exitY=0.5;exitDx=0;exitDy=0;entryX=0;entryY=0.5;entryDx=0;entryDy=0;fontFamily=UGent Panno Text;fontSize=28;fontColor=default;" edge="1" parent="1" source="vJc8T6YC7RUJxNuGQacC-4" target="vJc8T6YC7RUJxNuGQacC-13">
          <mxGeometry relative="1" as="geometry">
            <Array as="points">
              <mxPoint x="480" y="140" />
              <mxPoint x="480" y="180" />
            </Array>
          </mxGeometry>
        </mxCell>
        <mxCell id="vJc8T6YC7RUJxNuGQacC-4" value="Arguments" style="shape=step;perimeter=stepPerimeter;whiteSpace=wrap;html=1;fixedSize=1;fontFamily=UGent Panno Text;fontSize=28;" vertex="1" parent="1">
          <mxGeometry x="160" y="120" width="240" height="40" as="geometry" />
        </mxCell>
        <mxCell id="vJc8T6YC7RUJxNuGQacC-53" style="edgeStyle=orthogonalEdgeStyle;rounded=0;orthogonalLoop=1;jettySize=auto;html=1;exitX=1;exitY=0.5;exitDx=0;exitDy=0;entryX=0;entryY=0.5;entryDx=0;entryDy=0;fontFamily=UGent Panno Text;fontSize=28;fontColor=default;" edge="1" parent="1" source="vJc8T6YC7RUJxNuGQacC-5" target="vJc8T6YC7RUJxNuGQacC-48">
          <mxGeometry relative="1" as="geometry">
            <Array as="points">
              <mxPoint x="460" y="180" />
              <mxPoint x="460" y="460" />
            </Array>
          </mxGeometry>
        </mxCell>
        <mxCell id="vJc8T6YC7RUJxNuGQacC-5" value="Return type" style="shape=step;perimeter=stepPerimeter;whiteSpace=wrap;html=1;fixedSize=1;fontFamily=UGent Panno Text;fontSize=28;" vertex="1" parent="1">
          <mxGeometry x="160" y="160" width="240" height="40" as="geometry" />
        </mxCell>
        <mxCell id="vJc8T6YC7RUJxNuGQacC-56" style="edgeStyle=orthogonalEdgeStyle;rounded=0;orthogonalLoop=1;jettySize=auto;html=1;exitX=1;exitY=0.5;exitDx=0;exitDy=0;entryX=0;entryY=0.5;entryDx=0;entryDy=0;fontFamily=UGent Panno Text;fontSize=28;fontColor=default;" edge="1" parent="1" source="vJc8T6YC7RUJxNuGQacC-6" target="vJc8T6YC7RUJxNuGQacC-54">
          <mxGeometry relative="1" as="geometry">
            <Array as="points">
              <mxPoint x="440" y="220" />
              <mxPoint x="440" y="580" />
            </Array>
          </mxGeometry>
        </mxCell>
        <mxCell id="vJc8T6YC7RUJxNuGQacC-6" value="Body" style="shape=step;perimeter=stepPerimeter;whiteSpace=wrap;html=1;fixedSize=1;fontFamily=UGent Panno Text;fontSize=28;" vertex="1" parent="1">
          <mxGeometry x="160" y="200" width="240" height="40" as="geometry" />
        </mxCell>
        <mxCell id="vJc8T6YC7RUJxNuGQacC-7" value="Identifier" style="rounded=0;whiteSpace=wrap;html=1;fontFamily=UGent Panno Text;fontSize=32;" vertex="1" parent="1">
          <mxGeometry x="520" y="40" width="240" height="40" as="geometry" />
        </mxCell>
        <mxCell id="vJc8T6YC7RUJxNuGQacC-8" value="&quot;add&quot;" style="shape=step;perimeter=stepPerimeter;whiteSpace=wrap;html=1;fixedSize=1;fontFamily=UGent Panno Text;fontSize=28;" vertex="1" parent="1">
          <mxGeometry x="520" y="80" width="240" height="40" as="geometry" />
        </mxCell>
        <mxCell id="vJc8T6YC7RUJxNuGQacC-13" value="Arguments[]" style="rounded=0;whiteSpace=wrap;html=1;fontFamily=UGent Panno Text;fontSize=32;" vertex="1" parent="1">
          <mxGeometry x="520" y="160" width="240" height="40" as="geometry" />
        </mxCell>
        <mxCell id="vJc8T6YC7RUJxNuGQacC-46" style="edgeStyle=orthogonalEdgeStyle;rounded=0;orthogonalLoop=1;jettySize=auto;html=1;exitX=1;exitY=0.5;exitDx=0;exitDy=0;entryX=0;entryY=0.5;entryDx=0;entryDy=0;fontFamily=UGent Panno Text;fontSize=28;fontColor=default;" edge="1" parent="1" source="vJc8T6YC7RUJxNuGQacC-14" target="vJc8T6YC7RUJxNuGQacC-19">
          <mxGeometry relative="1" as="geometry" />
        </mxCell>
        <mxCell id="vJc8T6YC7RUJxNuGQacC-14" value="0" style="shape=step;perimeter=stepPerimeter;whiteSpace=wrap;html=1;fixedSize=1;fontFamily=UGent Panno Text;fontSize=28;" vertex="1" parent="1">
          <mxGeometry x="520" y="200" width="240" height="40" as="geometry" />
        </mxCell>
        <mxCell id="vJc8T6YC7RUJxNuGQacC-47" style="edgeStyle=orthogonalEdgeStyle;rounded=0;orthogonalLoop=1;jettySize=auto;html=1;exitX=1;exitY=0.5;exitDx=0;exitDy=0;entryX=0;entryY=0.5;entryDx=0;entryDy=0;fontFamily=UGent Panno Text;fontSize=28;fontColor=default;" edge="1" parent="1" source="vJc8T6YC7RUJxNuGQacC-15" target="vJc8T6YC7RUJxNuGQacC-37">
          <mxGeometry relative="1" as="geometry" />
        </mxCell>
        <mxCell id="vJc8T6YC7RUJxNuGQacC-15" value="1" style="shape=step;perimeter=stepPerimeter;whiteSpace=wrap;html=1;fixedSize=1;fontFamily=UGent Panno Text;fontSize=28;" vertex="1" parent="1">
          <mxGeometry x="520" y="240" width="240" height="40" as="geometry" />
        </mxCell>
        <mxCell id="vJc8T6YC7RUJxNuGQacC-19" value="Argument" style="rounded=0;whiteSpace=wrap;html=1;fontFamily=UGent Panno Text;fontSize=32;" vertex="1" parent="1">
          <mxGeometry x="880" y="40" width="240" height="40" as="geometry" />
        </mxCell>
        <mxCell id="vJc8T6YC7RUJxNuGQacC-27" style="edgeStyle=orthogonalEdgeStyle;rounded=0;orthogonalLoop=1;jettySize=auto;html=1;exitX=1;exitY=0.5;exitDx=0;exitDy=0;entryX=0;entryY=0.5;entryDx=0;entryDy=0;fontFamily=UGent Panno Text;fontSize=28;fontColor=default;" edge="1" parent="1" source="vJc8T6YC7RUJxNuGQacC-20" target="vJc8T6YC7RUJxNuGQacC-22">
          <mxGeometry relative="1" as="geometry" />
        </mxCell>
        <mxCell id="vJc8T6YC7RUJxNuGQacC-20" value="name" style="shape=step;perimeter=stepPerimeter;whiteSpace=wrap;html=1;fixedSize=1;fontFamily=UGent Panno Text;fontSize=28;" vertex="1" parent="1">
          <mxGeometry x="880" y="80" width="240" height="40" as="geometry" />
        </mxCell>
        <mxCell id="vJc8T6YC7RUJxNuGQacC-26" style="edgeStyle=orthogonalEdgeStyle;rounded=0;orthogonalLoop=1;jettySize=auto;html=1;exitX=1;exitY=0.5;exitDx=0;exitDy=0;entryX=0;entryY=0.5;entryDx=0;entryDy=0;fontFamily=UGent Panno Text;fontSize=28;fontColor=default;" edge="1" parent="1" source="vJc8T6YC7RUJxNuGQacC-21" target="vJc8T6YC7RUJxNuGQacC-24">
          <mxGeometry relative="1" as="geometry" />
        </mxCell>
        <mxCell id="vJc8T6YC7RUJxNuGQacC-21" value="type" style="shape=step;perimeter=stepPerimeter;whiteSpace=wrap;html=1;fixedSize=1;fontFamily=UGent Panno Text;fontSize=28;" vertex="1" parent="1">
          <mxGeometry x="880" y="120" width="240" height="40" as="geometry" />
        </mxCell>
        <mxCell id="vJc8T6YC7RUJxNuGQacC-22" value="Identifier" style="rounded=0;whiteSpace=wrap;html=1;fontFamily=UGent Panno Text;fontSize=32;" vertex="1" parent="1">
          <mxGeometry x="1240" y="40" width="240" height="40" as="geometry" />
        </mxCell>
        <mxCell id="vJc8T6YC7RUJxNuGQacC-23" value="&quot;a&quot;" style="shape=step;perimeter=stepPerimeter;whiteSpace=wrap;html=1;fixedSize=1;fontFamily=UGent Panno Text;fontSize=28;" vertex="1" parent="1">
          <mxGeometry x="1240" y="80" width="240" height="40" as="geometry" />
        </mxCell>
        <mxCell id="vJc8T6YC7RUJxNuGQacC-24" value="Type" style="rounded=0;whiteSpace=wrap;html=1;fontFamily=UGent Panno Text;fontSize=32;" vertex="1" parent="1">
          <mxGeometry x="1240" y="160" width="240" height="40" as="geometry" />
        </mxCell>
        <mxCell id="vJc8T6YC7RUJxNuGQacC-25" value="&quot;int&quot;" style="shape=step;perimeter=stepPerimeter;whiteSpace=wrap;html=1;fixedSize=1;fontFamily=UGent Panno Text;fontSize=28;" vertex="1" parent="1">
          <mxGeometry x="1240" y="200" width="240" height="40" as="geometry" />
        </mxCell>
        <mxCell id="vJc8T6YC7RUJxNuGQacC-37" value="Argument" style="rounded=0;whiteSpace=wrap;html=1;fontFamily=UGent Panno Text;fontSize=32;" vertex="1" parent="1">
          <mxGeometry x="880" y="280" width="240" height="40" as="geometry" />
        </mxCell>
        <mxCell id="vJc8T6YC7RUJxNuGQacC-38" style="edgeStyle=orthogonalEdgeStyle;rounded=0;orthogonalLoop=1;jettySize=auto;html=1;exitX=1;exitY=0.5;exitDx=0;exitDy=0;entryX=0;entryY=0.5;entryDx=0;entryDy=0;fontFamily=UGent Panno Text;fontSize=28;fontColor=default;" edge="1" parent="1" source="vJc8T6YC7RUJxNuGQacC-39" target="vJc8T6YC7RUJxNuGQacC-42">
          <mxGeometry relative="1" as="geometry" />
        </mxCell>
        <mxCell id="vJc8T6YC7RUJxNuGQacC-39" value="name" style="shape=step;perimeter=stepPerimeter;whiteSpace=wrap;html=1;fixedSize=1;fontFamily=UGent Panno Text;fontSize=28;" vertex="1" parent="1">
          <mxGeometry x="880" y="320" width="240" height="40" as="geometry" />
        </mxCell>
        <mxCell id="vJc8T6YC7RUJxNuGQacC-40" style="edgeStyle=orthogonalEdgeStyle;rounded=0;orthogonalLoop=1;jettySize=auto;html=1;exitX=1;exitY=0.5;exitDx=0;exitDy=0;entryX=0;entryY=0.5;entryDx=0;entryDy=0;fontFamily=UGent Panno Text;fontSize=28;fontColor=default;" edge="1" parent="1" source="vJc8T6YC7RUJxNuGQacC-41" target="vJc8T6YC7RUJxNuGQacC-44">
          <mxGeometry relative="1" as="geometry" />
        </mxCell>
        <mxCell id="vJc8T6YC7RUJxNuGQacC-41" value="type" style="shape=step;perimeter=stepPerimeter;whiteSpace=wrap;html=1;fixedSize=1;fontFamily=UGent Panno Text;fontSize=28;" vertex="1" parent="1">
          <mxGeometry x="880" y="360" width="240" height="40" as="geometry" />
        </mxCell>
        <mxCell id="vJc8T6YC7RUJxNuGQacC-42" value="Identifier" style="rounded=0;whiteSpace=wrap;html=1;fontFamily=UGent Panno Text;fontSize=32;" vertex="1" parent="1">
          <mxGeometry x="1240" y="280" width="240" height="40" as="geometry" />
        </mxCell>
        <mxCell id="vJc8T6YC7RUJxNuGQacC-43" value="&quot;b&quot;" style="shape=step;perimeter=stepPerimeter;whiteSpace=wrap;html=1;fixedSize=1;fontFamily=UGent Panno Text;fontSize=28;" vertex="1" parent="1">
          <mxGeometry x="1240" y="320" width="240" height="40" as="geometry" />
        </mxCell>
        <mxCell id="vJc8T6YC7RUJxNuGQacC-44" value="Type" style="rounded=0;whiteSpace=wrap;html=1;fontFamily=UGent Panno Text;fontSize=32;" vertex="1" parent="1">
          <mxGeometry x="1240" y="400" width="240" height="40" as="geometry" />
        </mxCell>
        <mxCell id="vJc8T6YC7RUJxNuGQacC-45" value="&quot;int&quot;" style="shape=step;perimeter=stepPerimeter;whiteSpace=wrap;html=1;fixedSize=1;fontFamily=UGent Panno Text;fontSize=28;" vertex="1" parent="1">
          <mxGeometry x="1240" y="440" width="240" height="40" as="geometry" />
        </mxCell>
        <mxCell id="vJc8T6YC7RUJxNuGQacC-48" value="Return type" style="rounded=0;whiteSpace=wrap;html=1;fontFamily=UGent Panno Text;fontSize=32;" vertex="1" parent="1">
          <mxGeometry x="520" y="440" width="240" height="40" as="geometry" />
        </mxCell>
        <mxCell id="vJc8T6YC7RUJxNuGQacC-52" style="edgeStyle=orthogonalEdgeStyle;rounded=0;orthogonalLoop=1;jettySize=auto;html=1;exitX=1;exitY=0.5;exitDx=0;exitDy=0;entryX=0;entryY=0.5;entryDx=0;entryDy=0;fontFamily=UGent Panno Text;fontSize=28;fontColor=default;" edge="1" parent="1" source="vJc8T6YC7RUJxNuGQacC-49" target="vJc8T6YC7RUJxNuGQacC-50">
          <mxGeometry relative="1" as="geometry" />
        </mxCell>
        <mxCell id="vJc8T6YC7RUJxNuGQacC-49" value="type" style="shape=step;perimeter=stepPerimeter;whiteSpace=wrap;html=1;fixedSize=1;fontFamily=UGent Panno Text;fontSize=28;" vertex="1" parent="1">
          <mxGeometry x="520" y="480" width="240" height="40" as="geometry" />
        </mxCell>
        <mxCell id="vJc8T6YC7RUJxNuGQacC-50" value="Type" style="rounded=0;whiteSpace=wrap;html=1;fontFamily=UGent Panno Text;fontSize=32;" vertex="1" parent="1">
          <mxGeometry x="880" y="440" width="240" height="40" as="geometry" />
        </mxCell>
        <mxCell id="vJc8T6YC7RUJxNuGQacC-51" value="&quot;int&quot;" style="shape=step;perimeter=stepPerimeter;whiteSpace=wrap;html=1;fixedSize=1;fontFamily=UGent Panno Text;fontSize=28;" vertex="1" parent="1">
          <mxGeometry x="880" y="480" width="240" height="40" as="geometry" />
        </mxCell>
        <mxCell id="vJc8T6YC7RUJxNuGQacC-54" value="Body" style="rounded=0;whiteSpace=wrap;html=1;fontFamily=UGent Panno Text;fontSize=32;" vertex="1" parent="1">
          <mxGeometry x="520" y="560" width="240" height="40" as="geometry" />
        </mxCell>
        <mxCell id="vJc8T6YC7RUJxNuGQacC-59" style="edgeStyle=orthogonalEdgeStyle;rounded=0;orthogonalLoop=1;jettySize=auto;html=1;exitX=1;exitY=0.5;exitDx=0;exitDy=0;entryX=0;entryY=0.5;entryDx=0;entryDy=0;fontFamily=UGent Panno Text;fontSize=28;fontColor=default;" edge="1" parent="1" source="vJc8T6YC7RUJxNuGQacC-55" target="vJc8T6YC7RUJxNuGQacC-57">
          <mxGeometry relative="1" as="geometry" />
        </mxCell>
        <mxCell id="vJc8T6YC7RUJxNuGQacC-55" value="Statement[]" style="shape=step;perimeter=stepPerimeter;whiteSpace=wrap;html=1;fixedSize=1;fontFamily=UGent Panno Text;fontSize=28;" vertex="1" parent="1">
          <mxGeometry x="520" y="600" width="240" height="40" as="geometry" />
        </mxCell>
        <mxCell id="vJc8T6YC7RUJxNuGQacC-57" value="Statement[]" style="rounded=0;whiteSpace=wrap;html=1;fontFamily=UGent Panno Text;fontSize=32;" vertex="1" parent="1">
          <mxGeometry x="880" y="560" width="240" height="40" as="geometry" />
        </mxCell>
        <mxCell id="vJc8T6YC7RUJxNuGQacC-64" style="edgeStyle=orthogonalEdgeStyle;rounded=0;orthogonalLoop=1;jettySize=auto;html=1;exitX=1;exitY=0.5;exitDx=0;exitDy=0;entryX=0;entryY=0.5;entryDx=0;entryDy=0;fontFamily=UGent Panno Text;fontSize=28;fontColor=default;" edge="1" parent="1" source="vJc8T6YC7RUJxNuGQacC-58" target="vJc8T6YC7RUJxNuGQacC-60">
          <mxGeometry relative="1" as="geometry" />
        </mxCell>
        <mxCell id="vJc8T6YC7RUJxNuGQacC-58" value="0" style="shape=step;perimeter=stepPerimeter;whiteSpace=wrap;html=1;fixedSize=1;fontFamily=UGent Panno Text;fontSize=28;" vertex="1" parent="1">
          <mxGeometry x="880" y="600" width="240" height="40" as="geometry" />
        </mxCell>
        <mxCell id="vJc8T6YC7RUJxNuGQacC-60" value="Binary expression" style="rounded=0;whiteSpace=wrap;html=1;fontFamily=UGent Panno Text;fontSize=32;" vertex="1" parent="1">
          <mxGeometry x="1240" y="560" width="240" height="40" as="geometry" />
        </mxCell>
        <mxCell id="vJc8T6YC7RUJxNuGQacC-70" style="edgeStyle=orthogonalEdgeStyle;rounded=0;orthogonalLoop=1;jettySize=auto;html=1;exitX=1;exitY=0.5;exitDx=0;exitDy=0;entryX=0;entryY=0.5;entryDx=0;entryDy=0;fontFamily=UGent Panno Text;fontSize=28;fontColor=default;" edge="1" parent="1" source="vJc8T6YC7RUJxNuGQacC-61" target="vJc8T6YC7RUJxNuGQacC-67">
          <mxGeometry relative="1" as="geometry" />
        </mxCell>
        <mxCell id="vJc8T6YC7RUJxNuGQacC-61" value="left" style="shape=step;perimeter=stepPerimeter;whiteSpace=wrap;html=1;fixedSize=1;fontFamily=UGent Panno Text;fontSize=28;" vertex="1" parent="1">
          <mxGeometry x="1240" y="600" width="240" height="40" as="geometry" />
        </mxCell>
        <mxCell id="vJc8T6YC7RUJxNuGQacC-62" value="&quot;+&quot;" style="shape=step;perimeter=stepPerimeter;whiteSpace=wrap;html=1;fixedSize=1;fontFamily=UGent Panno Text;fontSize=28;" vertex="1" parent="1">
          <mxGeometry x="1240" y="640" width="240" height="40" as="geometry" />
        </mxCell>
        <mxCell id="vJc8T6YC7RUJxNuGQacC-69" style="edgeStyle=orthogonalEdgeStyle;rounded=0;orthogonalLoop=1;jettySize=auto;html=1;exitX=1;exitY=0.5;exitDx=0;exitDy=0;entryX=0;entryY=0.5;entryDx=0;entryDy=0;fontFamily=UGent Panno Text;fontSize=28;fontColor=default;" edge="1" parent="1" source="vJc8T6YC7RUJxNuGQacC-63" target="vJc8T6YC7RUJxNuGQacC-65">
          <mxGeometry relative="1" as="geometry" />
        </mxCell>
        <mxCell id="vJc8T6YC7RUJxNuGQacC-63" value="right" style="shape=step;perimeter=stepPerimeter;whiteSpace=wrap;html=1;fixedSize=1;fontFamily=UGent Panno Text;fontSize=28;" vertex="1" parent="1">
          <mxGeometry x="1240" y="680" width="240" height="40" as="geometry" />
        </mxCell>
        <mxCell id="vJc8T6YC7RUJxNuGQacC-65" value="Identifier" style="rounded=0;whiteSpace=wrap;html=1;fontFamily=UGent Panno Text;fontSize=32;" vertex="1" parent="1">
          <mxGeometry x="1600" y="680" width="240" height="40" as="geometry" />
        </mxCell>
        <mxCell id="vJc8T6YC7RUJxNuGQacC-66" value="&quot;b&quot;" style="shape=step;perimeter=stepPerimeter;whiteSpace=wrap;html=1;fixedSize=1;fontFamily=UGent Panno Text;fontSize=28;" vertex="1" parent="1">
          <mxGeometry x="1600" y="720" width="240" height="40" as="geometry" />
        </mxCell>
        <mxCell id="vJc8T6YC7RUJxNuGQacC-67" value="Identifier" style="rounded=0;whiteSpace=wrap;html=1;fontFamily=UGent Panno Text;fontSize=32;" vertex="1" parent="1">
          <mxGeometry x="1600" y="560" width="240" height="40" as="geometry" />
        </mxCell>
        <mxCell id="vJc8T6YC7RUJxNuGQacC-68" value="&quot;a&quot;" style="shape=step;perimeter=stepPerimeter;whiteSpace=wrap;html=1;fixedSize=1;fontFamily=UGent Panno Text;fontSize=28;" vertex="1" parent="1">
          <mxGeometry x="1600" y="600" width="240" height="40" as="geometry" />
        </mxCell>
      </root>
    </mxGraphModel>
  </diagram>
</mxfile>
